inDegrees=no
num_controls=7
num_derivatives=13
num_iterations=107
num_multipliers=7
num_parameters=0
num_slacks=7
num_states=26
objective=0.431098
objective_accelerations=0.051226
objective_balance=0.006821
objective_effort=0.031442
objective_height=0.340461
objective_ligament=0.001148
solver_duration=1496.093518
status=Solve_Succeeded
success=true
DataType=double
version=3
OpenSimVersion=4.5
endheader
time	/jointset/ground_pelvis/pelvis_tilt/value	/jointset/ground_pelvis/pelvis_tx/value	/jointset/ground_pelvis/pelvis_ty/value	/jointset/hip_l/hip_flexion_l/value	/jointset/hip_l/hip_adduction_l/value	/jointset/hip_l/hip_rotation_l/value	/jointset/back/lumbar_extension/value	/jointset/patellofemoral_l/patellar_flexion_l/value	/jointset/knee_l/knee_flexion_l/value	/jointset/knee_l/knee_adduction_l/value	/jointset/knee_l/knee_rotation_l/value	/jointset/ankle_l/ankle_angle_l/value	/jointset/subtalar_l/subtalar_angle_l/value	/jointset/ground_pelvis/pelvis_tilt/speed	/jointset/ground_pelvis/pelvis_tx/speed	/jointset/ground_pelvis/pelvis_ty/speed	/jointset/hip_l/hip_flexion_l/speed	/jointset/hip_l/hip_adduction_l/speed	/jointset/hip_l/hip_rotation_l/speed	/jointset/back/lumbar_extension/speed	/jointset/patellofemoral_l/patellar_flexion_l/speed	/jointset/knee_l/knee_flexion_l/speed	/jointset/knee_l/knee_adduction_l/speed	/jointset/knee_l/knee_rotation_l/speed	/jointset/ankle_l/ankle_angle_l/speed	/jointset/subtalar_l/subtalar_angle_l/speed	/forceset/tau_hip_flexion_l	/forceset/tau_hip_adduction_l	/forceset/tau_hip_rotation_l	/forceset/tau_knee_flexion_l	/forceset/tau_ankle_angle_l	/forceset/tau_subtalar_angle_l	/forceset/tau_lumbar_extension	lambda_cid13_p0	lambda_cid13_p1	lambda_cid13_p2	lambda_cid13_p3	lambda_cid13_p4	lambda_cid13_p5	lambda_cid14_p0	/jointset/ground_pelvis/pelvis_tilt/accel	/jointset/ground_pelvis/pelvis_tx/accel	/jointset/ground_pelvis/pelvis_ty/accel	/jointset/hip_l/hip_flexion_l/accel	/jointset/hip_l/hip_adduction_l/accel	/jointset/hip_l/hip_rotation_l/accel	/jointset/back/lumbar_extension/accel	/jointset/patellofemoral_l/patellar_flexion_l/accel	/jointset/knee_l/knee_flexion_l/accel	/jointset/knee_l/knee_adduction_l/accel	/jointset/knee_l/knee_rotation_l/accel	/jointset/ankle_l/ankle_angle_l/accel	/jointset/subtalar_l/subtalar_angle_l/accel	gamma_cid13_p0	gamma_cid13_p1	gamma_cid13_p2	gamma_cid13_p3	gamma_cid13_p4	gamma_cid13_p5	gamma_cid14_p0
0.5	-0.3305054064522623	-0.02923996252110385	0.7657884881271728	1.165314280781401	-0.3046092044528712	0.01292925127672278	-0.320237605249873	0.820572552801357	0.8205725528013593	-0.1733769105577393	0.1662406395871633	0.16794815056787	-0.01816164757614567	-0.4272787910134886	-0.164004659367842	-0.5155098178743276	2.135445233364881	0.01400432573424178	0.7092476361821317	-0.6331236324973791	2.137310077479184	2.137310077479188	-0.006474332737923038	0.04493611122952994	0.5539118778719226	0.1072683401927144	-0.1824962458267429	0.01775272492744189	-0.02640597875596256	-0.2607820447093501	0.101837763849292	0.03825969212999594	0.1824889049222682	-5.223083298455184	-18.38540898758423	5.594204613922369	-2.12393217763583	-601.9756133878866	-59.97063986105295	-20.24726269776672	0.4841050600796936	0.542200947437158	-0.4681188419437805	-1.218915281636218	0.6879808829891801	-0.3448986769198323	1.538959057582922	-1.29600035480466	-1.296000354804659	0.03933640496540398	-0.07801668615929089	-0.5858068383393999	0.7102940970421692	-4.358622685727415e-07	-4.48837414573208e-07	2.744855854889396e-06	3.035601240785774e-07	-5.3239424936935e-07	-2.849328054687743e-07	-4.261090274943815e-07
0.51	-0.3347530720406232	-0.03085266860021656	0.7606111097373973	1.186604118240624	-0.3044362306410845	0.02000566202919278	-0.3264914274416081	0.8418772489486996	0.8418772489486976	-0.1734432417770772	0.1666857120532038	0.1734566150006288	-0.0170551675786712	-0.4222018580529848	-0.1585197149095646	-0.5198531942353573	2.122231136877472	0.02056887390507808	0.7059327350543519	-0.6175560861757591	2.123332132270128	2.123332132270129	-0.006767022541155843	0.04407919244095062	0.5476934278301764	0.1140096258402257	-0.1887918125082402	0.01814595116315643	-0.02647001035455328	-0.2637447494538739	0.1003397514942753	0.03829076799222382	0.1877963690855675	-5.944829371497567	-18.17090489767037	5.443922338253201	-1.893554105391684	-606.479472600703	-59.63880309666887	-18.93847018140686	0.5273237573788868	0.5542274023548494	-0.4006497132662712	-1.416372002083001	0.6370950691695442	-0.3404220112113214	1.57836037053518	-1.493161855742675	-1.493161855743089	-0.05980980809684473	-0.08993837539605416	-0.6529818487528776	0.6530894347789902	-4.051855257107076e-07	-3.565100909949319e-07	2.634637818235304e-06	2.992079416045193e-07	-4.999108158746305e-07	-1.907004469918232e-07	-4.025422496880294e-07
0.52	-0.3389484010307104	-0.03241000799328014	0.7553936570479947	1.207753071701014	-0.3041983306905819	0.02704579653428413	-0.3325870325799103	0.8630332715935947	0.8630332715935882	-0.1735117475214731	0.1671221335513208	0.1789002713806379	-0.01588186599748696	-0.4168114713587541	-0.1529313221580145	-0.5235246777997355	2.107268433598469	0.0269895534774642	0.701992386706401	-0.6014802218107937	2.107575376989608	2.107575376989606	-0.006909237749559651	0.0432059176448216	0.5409502673220046	0.1206326569346721	-0.1950873791897374	0.01853917739887097	-0.02653404195314401	-0.2667074541983977	0.09884173913925871	0.0383218438544517	0.1931038332488667	-6.67175100125086	-17.95692927457193	5.295365117747528	-1.677162245822688	-611.0855816886067	-59.39167233169829	-17.62895772405761	0.5467958068251159	0.5628906060917001	-0.3337402826135141	-1.568636639955149	0.6592071632991436	-0.4699881209540854	1.640622666251966	-1.651762369097681	-1.65176236909773	0.06943132393120369	-0.08128788766899256	-0.6907489316245027	0.6866431864291799	-3.780398004778568e-07	-2.649602378158072e-07	2.533170614929765e-06	2.978545386947064e-07	-4.739007541214116e-07	-1.020750315121301e-07	-3.803414943078715e-07
0.53	-0.3430883567292157	-0.03391100361558894	0.7501428996179424	1.228743824205089	-0.303896936381109	0.03404361002215053	-0.3385193679478065	0.8840229493169743	0.8840229493169754	-0.1735809526248776	0.167549639190614	0.1842739748535116	-0.0146429275942844	-0.4111313530323235	-0.1472557107410904	-0.5265087642721251	2.090594362868244	0.0332528243490556	0.6974883663682299	-0.5849096941609099	2.090066915045676	2.090066915045675	-0.00693591020458781	0.04229235997192683	0.5337075138660525	0.127118612305398	-0.2013409877422558	0.01872755083904643	-0.02652657141598445	-0.2697216120200376	0.09735705047395257	0.0382631417645424	0.198359151441151	-7.402629362419556	-17.6981457361312	5.133808816878815	-1.416719871747411	-615.7652179477872	-59.11104260246623	-16.32247289114236	0.5858399015794242	0.5717695726230044	-0.2631282865433961	-1.75998709607267	0.6040656421686693	-0.4532232201165451	1.676841455485599	-1.844302267036829	-1.844302267036521	-0.0392992376019965	-0.09730987011778659	-0.7534511163302039	0.6238530063057995	-3.486319435884913e-07	-1.717691172083206e-07	2.420249744638826e-06	2.943789813369753e-07	-4.448074392506721e-07	-1.617939643480188e-08	-3.56200079461486e-07
0.54	-0.3471700672332513	-0.03535486849110245	0.7448658242317679	1.249559197040558	-0.3035340736443042	0.04099386046066161	-0.344283683310978	0.9048287595889154	0.9048287595889242	-0.1736505409943088	0.1679678252205745	0.1895727682790758	-0.01334027337859229	-0.4051624324647973	-0.1415051727989576	-0.5287882690241835	2.072192499877362	0.03928323894382827	0.6924797768353426	-0.5678762208658658	2.070801886701906	2.070801886701908	-0.006985890954902802	0.04134199577830951	0.5259682578601146	0.1333758194325839	-0.2075945962947741	0.01891592427922189	-0.02651910087882489	-0.2727357698416775	0.09587236180864642	0.03820443967463311	0.2036144696334352	-8.138285898355608	-17.43953757261626	4.973438351590557	-1.170956406335437	-620.5386827625534	-58.90751014175864	-15.02431556810635	0.6045562550442242	0.5778759111334268	-0.1928239385472968	-1.914195092086586	0.6126359079353961	-0.5709019598972506	1.733211795284023	-2.003075649065401	-2.003075649065403	0.06476966487383723	-0.08864919181348689	-0.790049441621709	0.640893537721163	-3.167213027387265e-07	-7.67621262545611e-08	2.294656732151273e-06	2.885555084198451e-07	-4.123028656116117e-07	6.66960560696972e-08	-3.299115520141679e-07
